<svg xmlns="http://www.w3.org/2000/svg" viewBox="0 0 64 64" role="img" aria-label="BrollAI logo">
  <defs>
    <linearGradient id="bg" x1="0" y1="0" x2="1" y2="1">
      <stop offset="0%" stop-color="#101010" />
      <stop offset="100%" stop-color="#1a1a1a" />
    </linearGradient>
  </defs>
  <rect x="2" y="2" width="60" height="60" rx="14" fill="url(#bg)" />
  <path d="M18 17h16c7 0 11 4 11 9 0 4-2 6-5 7 4 1 7 4 7 9 0 7-5 11-13 11H18V17zm15 14c3 0 5-1 5-4s-2-4-5-4h-8v8h8zm1 16c4 0 6-2 6-5s-2-5-6-5h-9v10h9z" fill="#f5f5f5"/>
  <rect x="48" y="13" width="5" height="38" rx="2.5" fill="#e8380d" />
</svg>
